<?xml version="1.0" standalone="no"?><!DOCTYPE svg PUBLIC "-//W3C//DTD SVG 1.1//EN" "http://www.w3.org/Graphics/SVG/1.1/DTD/svg11.dtd"><svg t="1532147832648" class="icon" style="" viewBox="0 0 1024 1024" version="1.1" xmlns="http://www.w3.org/2000/svg" p-id="3138" xmlns:xlink="http://www.w3.org/1999/xlink" width="200" height="200"><defs><style type="text/css"></style></defs><path d="M768 896l-41.408 0-67.968-191.104C763.008 636.224 832 518.272 832 384c0-212.096-171.904-384-384-384S64 171.904 64 384c0 134.272 68.992 252.224 173.376 320.896L169.408 896 128 896c-17.664 0-32 14.336-32 32S110.336 960 128 960l64 0 512 0 64 0c17.664 0 32-14.336 32-32S785.664 896 768 896zM128 384c0-176.448 143.552-320 320-320s320 143.552 320 320c0 105.92-52.352 199.296-131.904 257.6-17.536 12.864-36.16 24-56.128 33.088C539.648 693.12 495.168 704 448 704s-91.648-10.88-132.032-29.312c-19.968-9.088-38.592-20.288-56.128-33.088C180.352 583.296 128 489.92 128 384zM237.312 896l56.96-160.256C341.376 756.352 393.28 768 448 768s106.624-11.648 153.728-32.256L658.688 896 237.312 896zM448 622.528c45.632 0 86.784-17.92 117.888-46.528 34.624-31.872 56.64-77.184 56.64-128 0-96.384-78.144-174.528-174.528-174.528S273.472 351.616 273.472 448c0 50.816 22.016 96.128 56.64 128C361.216 604.672 402.368 622.528 448 622.528zM448 337.472c60.928 0 110.528 49.6 110.528 110.528S508.928 558.528 448 558.528 337.472 508.928 337.472 448 387.072 337.472 448 337.472zM401.472 192c0-25.728 20.864-46.528 46.528-46.528S494.528 166.272 494.528 192 473.728 238.528 448 238.528 401.472 217.728 401.472 192z" p-id="3139"></path></svg>