<?xml version="1.0" standalone="no"?><!DOCTYPE svg PUBLIC "-//W3C//DTD SVG 1.1//EN" "http://www.w3.org/Graphics/SVG/1.1/DTD/svg11.dtd"><svg t="1532068047933" class="icon" style="" viewBox="0 0 1024 1024" version="1.1" xmlns="http://www.w3.org/2000/svg" p-id="5197" xmlns:xlink="http://www.w3.org/1999/xlink" width="200" height="200"><defs><style type="text/css"></style></defs><path d="M466.2848 391.9104l34.1632-71.5008a12.8 12.8 0 0 1 23.104 0l34.1632 71.5008H819.2a32 32 0 0 1 32 32V806.4a32 32 0 0 1-32 32H204.8a32 32 0 0 1-32-32V423.9104a32 32 0 0 1 32-32h261.4848zM236.8 455.6928v318.9248h550.4V455.6928H236.8z m128 229.6256c-38.88 0-70.4-31.4112-70.4-70.1632 0-38.752 31.52-70.1632 70.4-70.1632s70.4 31.4112 70.4 70.1632c0 38.752-31.52 70.1632-70.4 70.1632z m246.4-140.3264a22.4 22.4 0 0 1 22.4 22.4v95.5264a22.4 22.4 0 1 1-44.8 0V567.392a22.4 22.4 0 0 1 22.4-22.4z m89.6 0a22.4 22.4 0 0 1 22.4 22.4v95.5264a22.4 22.4 0 1 1-44.8 0V567.392a22.4 22.4 0 0 1 22.4-22.4z m-320.3968-261.376a32.0576 32.0576 0 0 1-43.5392-12.3072 31.8336 31.8336 0 0 1 12.352-43.392c101.12-56.256 212.224-56.256 330.016-1.0112a31.8464 31.8464 0 0 1 15.328 42.432 32.0448 32.0448 0 0 1-42.5792 15.2832c-99.8144-46.8096-189.2352-46.8096-271.5776-1.0112z"  p-id="5198"></path></svg>
