<?xml version="1.0" standalone="no"?><!DOCTYPE svg PUBLIC "-//W3C//DTD SVG 1.1//EN" "http://www.w3.org/Graphics/SVG/1.1/DTD/svg11.dtd"><svg t="1532147770511" class="icon" style="" viewBox="0 0 1024 1024" version="1.1" xmlns="http://www.w3.org/2000/svg" p-id="1784" xmlns:xlink="http://www.w3.org/1999/xlink" width="200" height="200"><defs><style type="text/css"></style></defs><path d="M800 489.792c-60.096 0-108.8 47.936-108.8 107.072 0 59.136 48.704 107.072 108.8 107.072s108.8-47.936 108.8-107.072C908.8 537.728 860.096 489.792 800 489.792zM800 640c-24.704 0-44.8-19.328-44.8-43.072s20.096-43.072 44.8-43.072 44.8 19.328 44.8 43.072S824.704 640 800 640zM800 384C676.288 384 576 476.096 576 589.696S800 960 800 960 1024 703.36 1024 589.696 923.712 384 800 384zM800 860.032c-83.776-104.96-160-223.936-160-270.336C640 511.552 711.744 448 800 448S960 511.552 960 589.696C960 636.096 883.776 755.072 800 860.032zM320 64 254.656 64 0 64l0 62.016L0 384l128 0 0 64 128 0 0 128 257.472 0c1.216-22.208 5.504-43.52 12.16-64L320 512 320 448l236.032 0c16.192-24.384 36.544-45.632 59.904-64L320 384 320 256 320 128l640 0 0 237.696c24.576 15.424 45.568 35.008 64 56.64L1024 64 320 64zM256 384 192 384 192 320 128 320 64 320 64 128l192 0L256 384z" p-id="1785"></path></svg>