<?xml version="1.0" standalone="no"?><!DOCTYPE svg PUBLIC "-//W3C//DTD SVG 1.1//EN" "http://www.w3.org/Graphics/SVG/1.1/DTD/svg11.dtd"><svg t="1532147821532" class="icon" style="" viewBox="0 0 1025 1024" version="1.1" xmlns="http://www.w3.org/2000/svg" p-id="3023" xmlns:xlink="http://www.w3.org/1999/xlink" width="200.1953125" height="200"><defs><style type="text/css"></style></defs><path d="M512.21909 80.718443c-186.694735 0-338.041175 151.34644-338.041175 338.041175 0 186.693712 151.34644 338.040152 338.041175 338.040152 186.694735 0 338.040152-151.34644 338.040152-338.040152C850.260266 232.063859 698.913826 80.718443 512.21909 80.718443zM539.599251 148.465503c64.600963-33.932398 132.124838 59.154416 132.124838 132.124838S600.77667 452.49033 539.599251 412.716203c-17.957225-11.675268-8.168797-11.638411-8.168797-84.609857C531.430454 255.135924 466.972822 186.613856 539.599251 148.465503zM270.688273 536.590341c-61.687265-38.979668-14.833651-144.000768 48.360629-180.486491 63.19428-36.484699 184.343097-24.507414 180.486491 48.361653-1.132308 21.388959-5.994273 12.893574-69.189577 49.379297C367.151536 490.329499 340.038584 580.412522 270.688273 536.590341zM742.140163 568.135268c-2.913698 72.912066-117.291187 84.846352-180.485467 48.360629-63.19428-36.485723-113.395678-147.392574-48.361653-180.485467 19.089533-9.714715 14.164094-1.255163 77.358373 35.229536C653.844672 507.725689 745.416281 486.165758 742.140163 568.135268z" p-id="3024"></path><path d="M604.12343 878.777854c-12.442084 0-22.445507-10.578792-21.363364-22.973781 0.193496-2.21138 0.291779-4.451426 0.291779-6.716043 0-40.71294-31.712828-73.716763-70.831731-73.716763s-70.831731 33.003823-70.831731 73.716763c0 2.264617 0.099307 4.503639 0.291779 6.715019 1.082143 12.39499-8.92128 22.973781-21.363364 22.973781l-87.870619 0c-11.829859 0-21.419673 9.589813-21.419673 21.419673l0 21.664358c0 11.829859 9.589813 21.419673 21.419673 21.419673l359.54787 0c11.829859 0 21.419673-9.589813 21.419673-21.419673l0-21.664358c0-11.829859-9.589813-21.419673-21.419673-21.419673L604.12343 878.77683z" p-id="3025"></path></svg>