<?xml version="1.0" standalone="no"?><!DOCTYPE svg PUBLIC "-//W3C//DTD SVG 1.1//EN" "http://www.w3.org/Graphics/SVG/1.1/DTD/svg11.dtd"><svg t="1532421199614" class="icon" style="" viewBox="0 0 1024 1024" version="1.1" xmlns="http://www.w3.org/2000/svg" p-id="2447" xmlns:xlink="http://www.w3.org/1999/xlink" width="200" height="200"><defs><style type="text/css"></style></defs><path d="M657.066667 490.666667l-64 0c-8.533333-29.866667-29.866667-51.2-59.733333-59.733333L533.333333 281.6c0-12.8-8.533333-21.333333-21.333333-21.333333s-21.333333 8.533333-21.333333 21.333333l0 149.333333c-34.133333 8.533333-64 42.666667-64 81.066667 0 46.933333 38.4 85.333333 85.333333 85.333333 38.4 0 72.533333-25.6 81.066667-64l64 0c12.8 0 21.333333-8.533333 21.333333-21.333333C678.4 499.2 669.866667 490.666667 657.066667 490.666667zM512 554.666667c-21.333333 0-42.666667-17.066667-42.666667-42.666667 0-21.333333 17.066667-42.666667 42.666667-42.666667s42.666667 17.066667 42.666667 42.666667C554.666667 533.333333 533.333333 554.666667 512 554.666667zM512 136.533333c-209.066667 0-375.466667 166.4-375.466667 375.466667s166.4 375.466667 375.466667 375.466667c209.066667 0 375.466667-166.4 375.466667-375.466667S721.066667 136.533333 512 136.533333zM512 844.8c-183.466667 0-332.8-149.333333-332.8-332.8 0-183.466667 149.333333-332.8 332.8-332.8 183.466667 0 332.8 149.333333 332.8 332.8C844.8 695.466667 695.466667 844.8 512 844.8zM512 55.466667C260.266667 55.466667 55.466667 260.266667 55.466667 512c0 251.733333 204.8 456.533333 456.533333 456.533333 251.733333 0 456.533333-204.8 456.533333-456.533333C968.533333 260.266667 763.733333 55.466667 512 55.466667zM512 930.133333c-230.4 0-418.133333-187.733333-418.133333-418.133333S281.6 93.866667 512 93.866667c230.4 0 418.133333 187.733333 418.133333 418.133333S742.4 930.133333 512 930.133333z" p-id="2448"></path></svg>