<?xml version="1.0" standalone="no"?><!DOCTYPE svg PUBLIC "-//W3C//DTD SVG 1.1//EN" "http://www.w3.org/Graphics/SVG/1.1/DTD/svg11.dtd"><svg t="1532399085799" class="icon" style="" viewBox="0 0 1025 1024" version="1.1" xmlns="http://www.w3.org/2000/svg" p-id="1042" xmlns:xlink="http://www.w3.org/1999/xlink" width="200.1953125" height="200"><defs><style type="text/css"></style></defs><path d="M834.08 332.16c-47.968-49.088-114.24-77.536-183.456-77.536-69.12 0-135.392 28.448-183.328 77.536-105.632 4.928-190.048 92.384-190.048 199.168 0 109.92 89.408 199.328 199.392 199.328 11.68 0 23.2-0.992 34.528-3.008 41.472 27.072 89.824 41.696 139.456 41.696 49.696 0 98.112-14.624 139.552-41.696 11.424 1.984 22.912 3.008 34.592 3.008 109.888 0 199.264-89.408 199.264-199.328C1024 424.544 939.616 337.088 834.08 332.16zM824.736 666.656c-16.608 0-32.736-3.008-48-8.832-35.008 30.496-79.488 47.552-126.112 47.552-46.496 0-91.008-17.056-125.984-47.552-15.264 5.824-31.488 8.832-48 8.832-74.624 0-135.392-60.736-135.392-135.328 0-74.624 60.736-135.392 135.392-135.392 6.368 0 12.736 0.448 19.04 1.376 36.192-49.152 93.088-78.72 154.944-78.72 61.888 0 118.88 29.536 155.008 78.72 6.24-0.928 12.64-1.376 19.136-1.376 74.624 0 135.264 60.736 135.264 135.392C960 605.92 899.36 666.656 824.736 666.656zM288 704 32 704c-17.664 0-32 14.336-32 32s14.336 32 32 32l256 0c17.664 0 32-14.336 32-32S305.664 704 288 704zM32 640l128 0c17.664 0 32-14.336 32-32s-14.336-32-32-32L32 576c-17.664 0-32 14.336-32 32S14.336 640 32 640zM96 512l128 0c17.664 0 32-14.336 32-32s-14.336-32-32-32L96 448c-17.664 0-32 14.336-32 32S78.336 512 96 512z" p-id="1043"></path></svg>